<svg width="62" height="70" viewBox="0 0 62 70" fill="none" xmlns="http://www.w3.org/2000/svg">
<path d="M31 0C28.2274 0 25.7172 1.32344 22.25 3.15C17.782 5.50156 11.657 8.70625 1.29376 10.9812L0.200012 11.2437V12.3375C0.200012 54.9883 30.1305 69.2945 30.4313 69.4312L31.0438 69.7375L31.6125 69.4312C31.9133 69.2781 61.8 53.5664 61.8 12.3375V11.2437L60.7063 10.9812C50.343 8.70625 44.218 5.50156 39.75 3.15C36.2828 1.32344 33.7727 0 31 0ZM31 16.8C39.493 16.8 46.4 23.707 46.4 32.2C46.4 40.693 39.493 47.6 31 47.6C22.507 47.6 15.6 40.693 15.6 32.2C15.6 23.707 22.507 16.8 31 16.8ZM31 19.6C24.0547 19.6 18.4 25.2547 18.4 32.2C18.4 35.1695 19.4281 37.9203 21.1563 40.075L38.875 22.3562C36.7203 20.6281 33.9695 19.6 31 19.6ZM40.8438 24.325L23.125 42.0437C25.2797 43.7719 28.0305 44.8 31 44.8C37.9508 44.8 43.6 39.1508 43.6 32.2C43.6 29.2305 42.5719 26.4797 40.8438 24.325Z" fill="white"/>
</svg>
