<svg width="16" height="16" viewBox="0 0 16 16" fill="none" xmlns="http://www.w3.org/2000/svg">
<path d="M1.33333 0.5C1.11232 0.5 0.900358 0.587797 0.744078 0.744078C0.587797 0.900358 0.5 1.11232 0.5 1.33333C0.5 1.55435 0.587797 1.76631 0.744078 1.92259C0.900358 2.07887 1.11232 2.16667 1.33333 2.16667C1.55435 2.16667 1.76631 2.07887 1.92259 1.92259C2.07887 1.76631 2.16667 1.55435 2.16667 1.33333C2.16667 1.11232 2.07887 0.900358 1.92259 0.744078C1.76631 0.587797 1.55435 0.5 1.33333 0.5ZM3.83333 0.5V2.16667H15.5V0.5H3.83333ZM1.33333 3.83333C1.11232 3.83333 0.900358 3.92113 0.744078 4.07741C0.587797 4.23369 0.5 4.44565 0.5 4.66667C0.5 4.88768 0.587797 5.09964 0.744078 5.25592C0.900358 5.4122 1.11232 5.5 1.33333 5.5C1.55435 5.5 1.76631 5.4122 1.92259 5.25592C2.07887 5.09964 2.16667 4.88768 2.16667 4.66667C2.16667 4.44565 2.07887 4.23369 1.92259 4.07741C1.76631 3.92113 1.55435 3.83333 1.33333 3.83333ZM3.83333 3.83333V5.5H13.8333V3.83333H3.83333ZM1.33333 7.16667C1.11232 7.16667 0.900358 7.25446 0.744078 7.41074C0.587797 7.56702 0.5 7.77899 0.5 8C0.5 8.22101 0.587797 8.43297 0.744078 8.58926C0.900358 8.74554 1.11232 8.83333 1.33333 8.83333C1.55435 8.83333 1.76631 8.74554 1.92259 8.58926C2.07887 8.43297 2.16667 8.22101 2.16667 8C2.16667 7.77899 2.07887 7.56702 1.92259 7.41074C1.76631 7.25446 1.55435 7.16667 1.33333 7.16667ZM3.83333 7.16667V8.83333H12.1667V7.16667H3.83333ZM1.33333 10.5C1.11232 10.5 0.900358 10.5878 0.744078 10.7441C0.587797 10.9004 0.5 11.1123 0.5 11.3333C0.5 11.5543 0.587797 11.7663 0.744078 11.9226C0.900358 12.0789 1.11232 12.1667 1.33333 12.1667C1.55435 12.1667 1.76631 12.0789 1.92259 11.9226C2.07887 11.7663 2.16667 11.5543 2.16667 11.3333C2.16667 11.1123 2.07887 10.9004 1.92259 10.7441C1.76631 10.5878 1.55435 10.5 1.33333 10.5ZM3.83333 10.5V12.1667H10.5V10.5H3.83333ZM1.33333 13.8333C1.11232 13.8333 0.900358 13.9211 0.744078 14.0774C0.587797 14.2337 0.5 14.4457 0.5 14.6667C0.5 14.8877 0.587797 15.0996 0.744078 15.2559C0.900358 15.4122 1.11232 15.5 1.33333 15.5C1.55435 15.5 1.76631 15.4122 1.92259 15.2559C2.07887 15.0996 2.16667 14.8877 2.16667 14.6667C2.16667 14.4457 2.07887 14.2337 1.92259 14.0774C1.76631 13.9211 1.55435 13.8333 1.33333 13.8333ZM3.83333 13.8333V15.5H8.83333V13.8333H3.83333Z" fill="black"/>
</svg>
