<?xml version="1.0" encoding="utf-8"?>
<!-- Generator: Adobe Illustrator 16.0.2, SVG Export Plug-In . SVG Version: 6.00 Build 0)  -->
<!DOCTYPE svg PUBLIC "-//W3C//DTD SVG 1.1//EN" "http://www.w3.org/Graphics/SVG/1.1/DTD/svg11.dtd">
<svg version="1.1" id="Capa_1" xmlns="http://www.w3.org/2000/svg" xmlns:xlink="http://www.w3.org/1999/xlink" x="0px" y="0px"
	 width="40px" height="40px" viewBox="286 375.596 40 40" enable-background="new 286 375.596 40 40" xml:space="preserve">
<g>
	<g>
		<circle fill="#BF1E2E" cx="306" cy="395.596" r="20"/>
	</g>
</g>
<g>
	<path fill="#FFFFFF" d="M316.617,399.86l-5.619-2.501c-0.246-0.109-0.535-0.054-0.725,0.14c-0.373,0.383-1.254,1.281-1.793,1.811
		c-1.072-0.753-2.219-1.742-3.342-2.888c-0.002-0.003-0.006-0.006-0.008-0.009c-1.129-1.105-2.082-2.212-2.842-3.294
		c0.65-0.656,1.797-1.787,1.811-1.802c0.191-0.188,0.246-0.475,0.137-0.72l-2.49-5.607c-0.127-0.289-0.447-0.442-0.754-0.361
		l-4.324,1.139c-1.313,0.334-1.953,1.709-1.547,3.024c1.25,4.061,3.051,7.522,6.566,11.086c0.002,0.001,0.002,0.003,0.004,0.004
		l0.021,0.022c0.002,0.001,0.002,0.002,0.004,0.004c4.645,4.582,8.836,5.873,11.086,6.566c1.303,0.401,2.688-0.223,3.023-1.547
		l1.152-4.313C317.059,400.31,316.906,399.989,316.617,399.86z M314.58,404.6c0,0.002,0,0.005-0.002,0.008
		c-0.152,0.6-0.797,0.82-1.395,0.636c-2.297-0.708-6.141-1.892-10.561-6.251l-0.02-0.021c-4.359-4.42-5.637-8.565-6.252-10.559
		c-0.184-0.6,0.037-1.244,0.637-1.396c0.002,0,0.004-0.001,0.006-0.002l3.797-1l2.086,4.699c-0.533,0.527-1.578,1.564-1.885,1.89
		c-0.207,0.217-0.234,0.547-0.07,0.797c0.85,1.292,1.961,2.614,3.301,3.929c1.334,1.359,2.707,2.517,3.973,3.346
		c0.244,0.159,0.566,0.136,0.783-0.06c0.34-0.304,1.377-1.356,1.904-1.896l4.707,2.095L314.58,404.6z"/>
	<path fill="#FFFFFF" d="M306,385.885c5.354,0,9.711,4.337,9.711,9.668c0,0.355,0.289,0.645,0.645,0.645s0.645-0.289,0.645-0.645
		c0-6.042-4.936-10.957-11-10.957c-0.355,0-0.645,0.288-0.645,0.645C305.355,385.596,305.645,385.885,306,385.885z"/>
	<path fill="#FFFFFF" d="M306,388.463c3.908,0,7.09,3.181,7.09,7.09c0,0.355,0.289,0.645,0.645,0.645s0.645-0.289,0.645-0.645
		c0-4.62-3.76-8.379-8.379-8.379c-0.355,0-0.645,0.288-0.645,0.645C305.355,388.174,305.645,388.463,306,388.463z"/>
	<path fill="#FFFFFF" d="M306,391.041c2.488,0,4.512,2.023,4.512,4.512c0,0.355,0.289,0.645,0.645,0.645s0.645-0.289,0.645-0.645
		c0-3.199-2.602-5.801-5.801-5.801c-0.355,0-0.645,0.288-0.645,0.645C305.355,390.752,305.645,391.041,306,391.041z"/>
</g>
</svg>
