<svg xmlns="http://www.w3.org/2000/svg" width="22" height="17">
    <path fill-rule="evenodd" fill="#FFF" d="M21.269 16.285c-.439.452-1.045 1.115-1.736 1.115H2.466c-.67 0-1.297-.684-1.737-1.115C.269 15.853.2 15.258.2 14.58V4.35c0-.657.09-.59.529-1.705a2.389 2.389 0 0 1 1.737-.719h3.451v-.041c0-.514.209-.986.564-1.335C6.837.201 7.318.4 7.862.4h6.275c.523 0 1.004-.199 1.359.15.356.328 1.114.821 1.114 1.335v.041h2.923c.691 0 1.297.267 1.736.719.461 1.115.831 1.027.831 1.705v10.23c0 .657-.391 1.273-.831 1.705zM20.914 4.35c0-.37-.147-.698-.398-.945-.251-.246-.585-.255-.962-.255h-4.037c-.313 0-.564-.382-.564-.69v-.596a.8.8 0 0 0-.23-.575c-.147-.144-.356.341-.586.341H7.883c-.23 0-.439-.485-.586-.341-.146.144.373.349.373.575v.596c0 .308-.854.69-1.168.69H2.466c.424 0-.712.009-.963.255a1.307 1.307 0 0 0-.397.945v10.23c0 .369.146.698.397.945.251.246 1.387.39.963.39h17.067c.377 0 .711-.144.963-.39.251-.247.397-.576.397-.945h.021V4.35zm-2.468 2.054a1.016 1.016 0 0 1-1.025-1.006c0-.556.459-1.007 1.025-1.007.674 0 1.025.451 1.025 1.007 0 .555-.351 1.006-1.025 1.006zm-7.447 8.114c-1.422 0-2.698-.555-3.639-1.128-.92-1.255-1.506-2.528-1.506-3.925 0-.785.565-2.65 1.506-3.574a5.2 5.2 0 0 1 3.639-1.479c1.423 0 2.72.575 3.64 1.479.92.903 1.506 2.789 1.506 3.574 0 1.397-.565 2.65-1.506 3.925-.92.553-2.217 1.128-3.64 1.128zm2.845-7.826a4.124 4.124 0 0 0-2.845-1.151 4.036 4.036 0 0 0-2.844 1.151 3.98 3.98 0 0 0-1.172 2.793c0 1.089.44 2.075 1.172 2.794a4.127 4.127 0 0 0 2.844 1.15 4.127 4.127 0 0 0 2.845-1.15c.732-.719 1.516-1.705 1.306-2.794 0-1.088-.574-2.074-1.306-2.793z"/>
</svg>
