<?xml version="1.0" encoding="utf-8"?>
<!-- Generator: Adobe Illustrator 16.0.2, SVG Export Plug-In . SVG Version: 6.00 Build 0)  -->
<!DOCTYPE svg PUBLIC "-//W3C//DTD SVG 1.1//EN" "http://www.w3.org/Graphics/SVG/1.1/DTD/svg11.dtd">
<svg version="1.1" id="Capa_1" xmlns="http://www.w3.org/2000/svg" xmlns:xlink="http://www.w3.org/1999/xlink" x="0px" y="0px"
	 width="590.026px" height="601.372px" viewBox="2.133 118.305 590.026 601.372"
	 enable-background="new 2.133 118.305 590.026 601.372" xml:space="preserve" fill='#fff'>
<g>
	<path d="M234.311,353.078c-0.005-0.002-0.014-0.004-0.019-0.004H86.278c-0.005,0-0.014,0.002-0.019,0.004
		c0,0-9.912,4.44-9.912,9.917s9.912,9.917,9.912,9.917c0.005,0.002,0.014,0.004,0.019,0.004h148.014
		c0.005,0,0.014-0.002,0.019-0.004c0,0,9.911-4.44,9.911-9.917S234.311,353.078,234.311,353.078z"/>
	<path fill="none" stroke="#fff" stroke-width="10" stroke-miterlimit="10" d="M234.311,353.078
		c-0.005-0.002-0.014-0.004-0.019-0.004H86.278c-0.005,0-0.014,0.002-0.019,0.004c0,0-9.912,4.44-9.912,9.917
		s9.912,9.917,9.912,9.917c0.005,0.002,0.014,0.004,0.019,0.004h148.014c0.005,0,0.014-0.002,0.019-0.004
		c0,0,9.911-4.44,9.911-9.917S234.311,353.078,234.311,353.078z"/>
</g>
<g>
	<path d="M334.31,441.421c-0.005-0.002-0.014-0.004-0.019-0.004H86.278c-0.005,0-0.014,0.002-0.019,0.004
		c0,0-9.912,4.441-9.912,9.918c0,5.478,9.912,9.917,9.912,9.917c0.005,0.002,0.014,0.004,0.019,0.004h248.014
		c0.005,0,0.014-0.002,0.019-0.004c0,0,9.911-4.439,9.911-9.917C344.221,445.862,334.31,441.421,334.31,441.421z"/>
	<path fill="none" stroke="#fff" stroke-width="10" stroke-miterlimit="10" d="M334.31,441.421
		c-0.005-0.002-0.014-0.004-0.019-0.004H86.278c-0.005,0-0.014,0.002-0.019,0.004c0,0-9.912,4.441-9.912,9.918
		c0,5.478,9.912,9.917,9.912,9.917c0.005,0.002,0.014,0.004,0.019,0.004h248.014c0.005,0,0.014-0.002,0.019-0.004
		c0,0,9.911-4.439,9.911-9.917C344.221,445.862,334.31,441.421,334.31,441.421z"/>
</g>
<g>
	<path d="M184.311,530.533c-0.005-0.002-0.014-0.004-0.02-0.004H86.278c-0.005,0-0.014,0.002-0.019,0.004
		c0,0-9.912,4.439-9.912,9.917c0,5.477,9.912,9.917,9.912,9.917c0.005,0.002,0.014,0.004,0.019,0.004h98.014
		c0.006,0,0.014-0.002,0.02-0.004c0,0,9.911-4.44,9.911-9.917C194.222,534.973,184.311,530.533,184.311,530.533z"/>
	<path fill="none" stroke="#fff" stroke-width="10" stroke-miterlimit="10" d="M184.311,530.533
		c-0.005-0.002-0.014-0.004-0.02-0.004H86.278c-0.005,0-0.014,0.002-0.019,0.004c0,0-9.912,4.439-9.912,9.917
		c0,5.477,9.912,9.917,9.912,9.917c0.005,0.002,0.014,0.004,0.019,0.004h98.014c0.006,0,0.014-0.002,0.02-0.004
		c0,0,9.911-4.44,9.911-9.917C194.222,534.973,184.311,530.533,184.311,530.533z"/>
</g>
<path stroke="#fff" stroke-width="10" stroke-miterlimit="10" d="M473.436,123.305h-321.59L7.133,268.018v372.613h19.844V282.046
	h138.898V143.147h287.719 M146.032,262.204H41.006l105.025-105.027L146.032,262.204L146.032,262.204z"/>
<path stroke="#fff" stroke-width="8" stroke-miterlimit="10" d="M579.475,492.002l-28.266-28.276
	c-11.191-11.19-30.697-11.19-41.889,0L356.624,616.415l-21.043,77.179l-5.148,5.148c-3.85,3.85-3.861,10.061-0.061,13.938
	l-0.049,0.199l0.195-0.05c1.928,1.885,4.428,2.847,6.928,2.847c2.539,0,5.08-0.972,7.014-2.905l5.15-5.149l77.178-21.043
	L579.475,533.88c5.598-5.596,8.684-13.026,8.684-20.944C588.159,505.02,585.073,497.588,579.475,492.002z M379.532,621.574
	L481.157,519.95l42.096,42.096L421.625,663.671L379.532,621.574z M370.573,640.673l31.945,31.947l-43.922,11.975L370.573,640.673z
	 M565.448,519.851l-28.166,28.167l-42.1-42.097l28.168-28.166c3.689-3.69,10.131-3.701,13.82,0l28.275,28.275
	c1.846,1.846,2.867,4.296,2.867,6.904C568.303,515.545,567.292,518.006,565.448,519.851z"/>
<rect x="25.133" y="620.631" stroke="#fff" stroke-width="10" stroke-miterlimit="10" width="273.506" height="20"/>
<rect x="453.563" y="123.305" stroke="#fff" stroke-width="10" stroke-miterlimit="10" width="20" height="334.667"/>
<path d="M379.598,253.887c0,6.461,5.24,11.7,11.701,11.7c6.463,0,11.699-5.239,11.699-11.7c0-12.958-6.701-25.416-18.387-34.18
	c-7.982-5.987-17.805-9.986-28.414-11.687v-12.635c0-6.461-5.236-11.7-11.699-11.7c-6.461,0-11.701,5.239-11.701,11.7v12.635
	c-10.609,1.701-20.43,5.7-28.412,11.687c-11.686,8.764-18.388,21.222-18.388,34.18c0,12.958,6.703,25.415,18.388,34.18
	c7.982,5.986,17.805,9.986,28.412,11.687v46.34c-13.477-3.294-23.398-12.042-23.398-22.006c0-6.461-5.238-11.7-11.699-11.7
	c-6.463,0-11.702,5.239-11.702,11.7c0,12.958,6.702,25.416,18.389,34.181c7.98,5.986,17.803,9.986,28.412,11.688v12.753
	c0,6.462,5.238,11.7,11.699,11.7c6.463,0,11.701-5.238,11.701-11.7v-12.753c10.609-1.7,20.432-5.7,28.412-11.688
	C396.297,349.504,403,337.046,403,324.088c0-12.957-6.701-25.416-18.389-34.18c-7.98-5.986-17.805-9.985-28.412-11.687v-46.34
	C369.676,235.176,379.598,243.923,379.598,253.887z M309.399,253.887c0-9.964,9.922-18.712,23.398-22.006v44.011
	C319.321,272.599,309.399,263.852,309.399,253.887z M379.598,324.088c0,9.966-9.922,18.712-23.398,22.007v-44.012
	C369.676,305.377,379.598,314.124,379.598,324.088z"/>
</svg>
