<svg xmlns="http://www.w3.org/2000/svg" width="22" height="17">
    <path fill-rule="evenodd" fill="#838383" d="M21.878 8.18a.485.485 0 0 1 .001.611c-.212.258-5.241 6.313-10.884 6.313-1.573 0-3.151-.379-4.698-1.101l-2.765 2.854a.452.452 0 0 1-.648 0 .484.484 0 0 1 0-.669l5.52-5.697 4.533-4.679h.001L18.456.116a.45.45 0 0 1 .648 0 .483.483 0 0 1 0 .668L16.415 3.56c3.132 1.835 5.365 4.501 5.463 4.62zM13.23 6.847l-3.823 3.946c.461.34 1.009.529 1.588.529 1.515 0 2.748-1.272 2.748-2.836 0-.598-.184-1.162-.513-1.639zm2.516-2.597-1.868 1.929c.497.659.781 1.457.781 2.307 0 2.086-1.644 3.782-3.664 3.782a3.55 3.55 0 0 1-2.236-.807l-1.764 1.821c1.324.571 2.666.877 4 .877 4.529 0 8.826-4.452 9.918-5.673-.692-.772-2.672-2.828-5.167-4.236zM7.925 9.528a.461.461 0 0 1-.53-.383 3.774 3.774 0 0 1-.064-.659c0-2.086 1.643-3.782 3.664-3.782.218 0 .43.028.638.065a.473.473 0 0 1 .371.548c-.044.256-.287.434-.53.383a2.611 2.611 0 0 0-.479-.051c-1.516 0-2.749 1.273-2.749 2.837 0 .17.022.334.05.494a.473.473 0 0 1-.371.548zm5.783-6.22c-.947-.328-1.861-.495-2.713-.495-4.563 0-8.889 4.517-9.943 5.698.494.65 1.813 2.247 3.74 3.569a.48.48 0 0 1 .128.655.449.449 0 0 1-.634.133C1.662 11.069.148 8.85.085 8.756A.486.486 0 0 1 .11 8.18c.212-.258 5.241-6.312 10.885-6.312.951 0 1.963.182 3.005.544.24.084.368.351.288.599a.45.45 0 0 1-.58.297z"/>
</svg>
