<?xml version="1.0" encoding="utf-8"?>
<!-- Generator: Adobe Illustrator 25.0.0, SVG Export Plug-In . SVG Version: 6.00 Build 0)  -->
<svg version="1.1" id="Layer_1" xmlns="http://www.w3.org/2000/svg" xmlns:xlink="http://www.w3.org/1999/xlink" x="0px" y="0px"
	 viewBox="0 0 512 310" style="enable-background:new 0 0 512 310;" xml:space="preserve">
<style type="text/css">
	.st0{fill:#838383;}
</style>
<g>
	<g>
		<path class="st0" d="M510.1,148.7C506.1,142.6,409.2,0,256,0C124.6,0,7.4,141.8,2.5,147.8c-3.3,4.1-3.3,10.2,0,14.3
			c4.9,6,122,147.8,253.5,147.8s248.6-141.8,253.5-147.8C512.6,158.3,512.8,152.8,510.1,148.7z M256,287.9
			C150.6,287.9,50.4,183.6,25,155C50.4,126.4,150.5,22.1,256,22.1c123.3,0,210.3,104.1,231.6,132.3C463,182.1,362.3,287.9,256,287.9
			z"/>
	</g>
</g>
<g>
	<g>
		<path class="st0" d="M256,66.4c-47.1,0-85.3,39.7-85.3,88.6s38.3,88.6,85.3,88.6s85.3-39.7,85.3-88.6S303.1,66.4,256,66.4z
			 M256,221.4c-35.3,0-64-29.8-64-66.4s28.7-66.4,64-66.4s64,29.8,64,66.4S291.3,221.4,256,221.4z"/>
	</g>
</g>
</svg>
