<svg width="48" height="68" viewBox="0 0 48 68" fill="none" xmlns="http://www.w3.org/2000/svg">
<path d="M24 0.399994C14.3 0.399994 6.4 8.29999 6.4 18V27.35C2.44375 31.6312 0 37.325 0 43.6C0 56.8312 10.7688 67.6 24 67.6C37.2313 67.6 48 56.8312 48 43.6C48 37.325 45.5563 31.6312 41.6 27.35V18C41.6 8.29999 33.7 0.399994 24 0.399994ZM24 3.59999C31.975 3.59999 38.4 10.025 38.4 18V24.45C34.3812 21.4187 29.4062 19.6 24 19.6C18.5938 19.6 13.6188 21.4187 9.6 24.45V18C9.6 10.025 16.025 3.59999 24 3.59999ZM24 38.8C26.65 38.8 28.8 40.95 28.8 43.6C28.8 45.6875 27.4625 47.4375 25.6 48.1V51.6C25.6 52.4812 24.8813 53.2 24 53.2C23.1188 53.2 22.4 52.4812 22.4 51.6V48.1C20.5375 47.4375 19.2 45.6875 19.2 43.6C19.2 40.95 21.35 38.8 24 38.8Z" fill="white"/>
</svg>
