<svg id="Layer_1" enable-background="new 0 0 64 64" height="27" viewBox="0 0 64 64" width="27" fill="#be1e2d" xmlns="http://www.w3.org/2000/svg"><g><g><g><path d="m32 63c-17.1 0-31-13.9-31-31 0-9.4 4.2-18.1 11.4-24.1.9-.7 2.1-.6 2.8.3s.6 2.1-.3 2.8c-6.3 5.2-9.9 12.8-9.9 21 0 14.9 12.1 27 27 27s27-12.1 27-27c0-8.2-3.6-15.8-10-20.9-.9-.7-1-2-.3-2.8.7-.9 2-1 2.8-.3 7.3 5.9 11.5 14.6 11.5 24 0 17.1-13.9 31-31 31z"/></g></g></g><g><g><g><path d="m32 34c-1.1 0-2-.9-2-2v-29c0-1.1.9-2 2-2s2 .9 2 2v29c0 1.1-.9 2-2 2z"/></g></g></g></svg>