<svg width="46" height="58" viewBox="0 0 46 58" fill="none" xmlns="http://www.w3.org/2000/svg">
<path d="M0.2 0.200012V5.00001C0.2 6.98481 1.8152 8.60001 3.8 8.60001H6.2V16.6625C6.2 20.2724 8.0065 23.647 11.0094 25.6484L16.0367 29L11.0094 32.3516C8.00683 34.3542 6.2 37.7287 6.2 41.3375V49.4H3.8C1.8152 49.4 0.2 51.0152 0.2 53V57.8H45.8V53C45.8 51.0152 44.1848 49.4 42.2 49.4H39.8V41.3375C39.8 37.7287 37.9932 34.3542 34.9906 32.3516L29.9633 29L34.9906 25.6484C37.9948 23.647 39.8 20.2724 39.8 16.6625V8.60001H42.2C44.1848 8.60001 45.8 6.98481 45.8 5.00001V0.200012H0.2ZM8.6 8.60001H37.4V16.6625C37.4 19.4727 35.9976 22.0938 33.6594 23.6516L25.6367 29L33.6594 34.3484C35.9968 35.9075 37.4 38.5287 37.4 41.3375V49.4H8.6V41.3375C8.6 38.5287 10.0032 35.9075 12.3406 34.3484L20.3633 29L12.3406 23.6516C10.0035 22.0938 8.6 19.4727 8.6 16.6625V8.60001ZM14.6891 20.6C17.3003 24.0272 23 25.4 23 25.4C23 25.4 28.6442 23.9672 31.2734 20.6H14.6891ZM23 35.9328C23 35.9328 13.7922 39.1736 11.5086 47H34.5078C32.2554 39.0212 23 35.9328 23 35.9328Z" fill="white"/>
</svg>
