<?xml version="1.0" encoding="utf-8"?>
<!-- Generator: Adobe Illustrator 16.0.2, SVG Export Plug-In . SVG Version: 6.00 Build 0)  -->
<!DOCTYPE svg PUBLIC "-//W3C//DTD SVG 1.1//EN" "http://www.w3.org/Graphics/SVG/1.1/DTD/svg11.dtd">
<svg version="1.1" id="Capa_1" xmlns="http://www.w3.org/2000/svg" xmlns:xlink="http://www.w3.org/1999/xlink" x="0px" y="0px"
	 width="40px" height="40px" viewBox="286 375.595 40 40" enable-background="new 286 375.595 40 40" xml:space="preserve">
<g>
	<g>
		<circle fill="#BF1E2E" cx="306" cy="395.595" r="20"/>
	</g>
</g>
<g>
	<path fill="#FFFFFF" d="M306,388.993c-0.28,0-0.508,0.228-0.508,0.508s0.228,0.508,0.508,0.508s0.508-0.228,0.508-0.508
		S306.28,388.993,306,388.993z"/>
	<path fill="#FFFFFF" d="M297.57,398.134c0.28,0,0.508-0.228,0.508-0.508s-0.228-0.508-0.508-0.508s-0.508,0.228-0.508,0.508
		S297.29,398.134,297.57,398.134z"/>
	<path fill="#FFFFFF" d="M310.063,383.915c-4.571,0-8.323,3.152-8.614,7.122c-4.354,0.218-8.448,3.358-8.448,7.604
		c0,1.775,0.702,3.493,1.98,4.856c0.253,1.042-0.055,2.147-0.816,2.909c-0.145,0.146-0.188,0.364-0.109,0.554
		c0.079,0.19,0.264,0.313,0.469,0.313c1.448,0,2.844-0.567,3.881-1.568c1.011,0.344,2.328,0.553,3.533,0.553
		c4.571,0,8.323-3.15,8.614-7.121c1.063-0.047,2.169-0.243,3.044-0.541c1.037,1.001,2.433,1.568,3.881,1.568
		c0.205,0,0.39-0.123,0.469-0.313c0.079-0.189,0.035-0.408-0.109-0.554c-0.762-0.762-1.069-1.867-0.816-2.909
		c1.278-1.363,1.98-3.081,1.98-4.856C319,387.12,314.59,383.915,310.063,383.915z M301.938,405.243
		c-1.198,0-2.564-0.235-3.479-0.599c-0.195-0.079-0.419-0.027-0.563,0.128c-0.612,0.67-1.41,1.138-2.279,1.353
		c0.479-0.916,0.602-1.998,0.311-3.022c-0.023-0.081-0.065-0.153-0.125-0.215c-1.151-1.187-1.786-2.693-1.786-4.246
		c0-3.579,3.627-6.602,7.922-6.602c4.055,0,7.617,2.819,7.617,6.602C309.555,402.281,306.138,405.243,301.938,405.243z
		 M316.198,395.778c-0.06,0.062-0.102,0.135-0.125,0.215c-0.291,1.024-0.169,2.106,0.311,3.022
		c-0.869-0.215-1.667-0.683-2.279-1.353c-0.144-0.155-0.367-0.207-0.563-0.128c-0.793,0.314-1.924,0.533-2.992,0.586
		c-0.148-1.921-1.105-3.726-2.743-5.065h6.623c0.28,0,0.508-0.228,0.508-0.508s-0.228-0.508-0.508-0.508h-8.184
		c-1.153-0.586-2.447-0.929-3.78-1.001c0.292-3.41,3.589-6.108,7.597-6.108c4.295,0,7.922,3.022,7.922,6.602
		C317.984,393.085,317.35,394.592,316.198,395.778z"/>
	<path fill="#FFFFFF" d="M306,397.118h-6.398c-0.28,0-0.508,0.228-0.508,0.508s0.228,0.508,0.508,0.508H306
		c0.28,0,0.508-0.228,0.508-0.508S306.28,397.118,306,397.118z"/>
	<path fill="#FFFFFF" d="M306,400.165h-8.43c-0.28,0-0.508,0.228-0.508,0.508s0.228,0.508,0.508,0.508H306
		c0.28,0,0.508-0.228,0.508-0.508S306.28,400.165,306,400.165z"/>
	<path fill="#FFFFFF" d="M314.43,388.993h-6.398c-0.28,0-0.508,0.228-0.508,0.508s0.228,0.508,0.508,0.508h6.398
		c0.28,0,0.508-0.228,0.508-0.508S314.71,388.993,314.43,388.993z"/>
</g>
</svg>
